<?xml version="1.0" encoding="UTF-8"?>
<svg xmlns="http://www.w3.org/2000/svg" viewBox="801 344 274 272">
  <path d="M1014.2,569.56c1.74-38.31.87-92.29-14.17-126.43-4.45-10.09-11.39-18.02-21.2-22.92-19.98-9.99-55.06-15.74-77.2-15.78l-54.99-.1c-11.88-.02-22.87-4.01-24.19-14.77-1.4-11.46,9.4-19.23,20.5-20.7,37.6-5.01,74.9-7.39,112.77-5.34,18.7,1.01,36.2,3.78,53.65,9.6,17.16,5.73,29.66,17.62,35.66,34.79s8.71,34.06,9.87,52.44c2.45,39.04-.02,77.43-5.33,116.08-1.52,11.09-10.07,21.87-21.85,19.47-10.45-2.12-14.04-14.54-13.51-26.33Z" fill="currentColor"/>
</svg>