<?xml version="1.0" encoding="UTF-8"?>
<svg id="Layer_1" xmlns="http://www.w3.org/2000/svg" version="1.1" viewBox="0 0 1152.24 1152.24">
  <!-- Generator: Adobe Illustrator 30.3.0, SVG Export Plug-In . SVG Version: 2.1.3 Build 182)  -->
  <defs>
    <style>
      .st0 {
        fill: #533d98;
      }
    </style>
  </defs>
  <path class="st0" d="M1014.2,569.56c1.74-38.31.87-92.29-14.17-126.43-4.45-10.09-11.39-18.02-21.2-22.92-19.98-9.99-55.06-15.74-77.2-15.78l-54.99-.1c-11.88-.02-22.87-4.01-24.19-14.77-1.4-11.46,9.4-19.23,20.5-20.7,37.6-5.01,74.9-7.39,112.77-5.34,18.7,1.01,36.2,3.78,53.65,9.6,17.16,5.73,29.66,17.62,35.66,34.79s8.71,34.06,9.87,52.44c2.45,39.04-.02,77.43-5.33,116.08-1.52,11.09-10.07,21.87-21.85,19.47-10.45-2.12-14.04-14.54-13.51-26.33Z"/>
  <path d="M249.83,622.95c-.01,7.88-7.35,13.11-13.77,12.81-6.93-.32-13.11-5.87-13.11-13.33l.03-68.16c0-15.55-11.37-27.78-26.57-28.42-14.58-.61-28.67,10.76-28.7,26.52l-.16,70.03c-.02,7.47-6.35,13.24-13.11,13.37-7.24.14-13.94-5.49-13.91-13.37l.2-71.9c.06-22.53,16.22-40.76,35.05-48.24,22.19-8.82,45.16-.85,60.71,14.42,15.69-15.13,38.6-23.26,60.74-14.47,19.43,7.71,35.25,26.27,35.25,49.28v71.82c.01,7.44-7.65,12.66-13.89,12.44-7.02-.24-12.99-5.85-13.02-13.39l-.28-70.96c-.06-15.06-14.15-25.81-27.97-25.57-14.84.26-27.32,11.98-27.35,27.46l-.13,69.65Z"/>
  <path d="M375.87,691.09c-.02,7.59-6.97,12.52-13.25,12.55-5.77.03-13.53-4.23-13.53-11.48v-126.22c0-31.5,23.4-57.52,51.52-64.53,31.95-7.97,63.08,7.37,77.3,34.23,15.35,28.97,7.94,63.45-15.3,83.69-24.54,21.38-59.5,22.75-86.56,3.38l-.17,68.38ZM410.11,527.05c-23.34,4.12-37.32,26.12-33.49,47.96,3.98,22.72,25.64,37.54,48.05,33.58,22.29-3.94,37.33-25.25,33.64-47.39s-24.78-38.27-48.19-34.14Z"/>
  <path d="M812.97,580.15c5.9,18.21,23.46,28.98,42.29,28.01,10.74-.55,19.73-4.39,28.86-9.7,5.56-3.23,12.47.91,15.69,5.67,3.25,4.81,2.56,12.06-2.34,16.43-11.99,10.69-27.22,14.44-43.08,14.78-43.61.94-76.71-37.01-70.07-79.46,6.64-42.41,50.15-68.14,91.35-53.62,26.67,9.4,43.94,32.97,44.91,61.66.28,8.35-4.17,16.19-13.65,16.2l-93.97.03ZM891.44,552.93c-5.06-16.02-17.48-24.44-31.75-26.99-20.42-3.61-40.05,7.7-46.92,27.13l78.67-.13Z"/>
  <path d="M758.44,621.52c-19.92,23.87-72.76,15.88-83.62-13.33-2.37-6.37,1.18-12.74,6.34-15.65,5.29-2.99,13.01-2.51,16.79,2.87,11.95,17.02,34.55,16.35,41.5,6.25,3.99-5.81,3.33-13.06-3.13-16.88-4.05-2.39-9.51-3.78-14.5-4.33-25.3-2.8-47.93-14.68-47.76-41.57.11-17.8,10.98-32.37,27.93-38.35,18.66-6.59,38.82-2.42,54.79,9.29,5.8,4.25,10.36,9.66,11.94,16.8,1.2,5.42-.76,10.45-4.6,13.76s-9.71,4.84-14.87,1.88c-3.92-2.25-5.57-7.28-8.76-10.49-7.55-7.61-20.31-8.94-30.02-5.47-8.49,3.03-12.47,12.7-7.47,20.12,2.19,3.26,7.15,4.56,10.92,5.21l21.49,3.7c17.21,2.97,31.07,17.68,33.33,35.41,1.44,11.3-3.23,22.33-10.3,30.79Z"/>
  <path d="M584.78,510.65c.03-7.58,6.97-11.88,12.93-12.14s13.74,4.39,13.74,11.72v71.91c0,30.07-25.94,53.34-55.07,53.36-29.1.02-55.02-23.31-55.02-53.36l-.02-71.9c0-7.02,7.04-11.59,12.86-11.73,6.32-.15,13.75,4.34,13.78,11.73l.33,70.91c.07,15.52,13.48,27.29,28.1,27.27,14.51-.02,28.04-11.81,28.1-27.26l.28-70.51Z"/>
  <path d="M655.68,620.86c0,8.8-5.67,14.22-13.1,14.58-7.74.37-14.04-5.67-14.04-14.12l.02-177.29c0-7.75,6.35-12.95,13.28-13.19,6.25-.21,13.77,4.58,13.77,12.36l.08,177.66Z"/>
  <path d="M123.3,623.71c-1.39,7.76-7.16,12.03-13.96,11.72-5.88-.27-12.93-4.87-12.93-12.18l.02-167.62c0-7.25,7.06-11.66,12.96-11.92,5.54-.24,13.75,3.69,13.76,11l.16,169Z"/>
  <path d="M700.67,772.79c-2.3-3.99-1.46-8.12,1.38-9.72,3.91-2.2,7.88-.84,9.71,2.84,4.63,9.31,15.56,12.84,24.43,9.33,9.71-3.85,14.31-13.8,12.21-24.6-12.56,8.97-28.68,8.52-40.35-1.46-11.19-9.57-14.97-25.94-7.57-39.88,6.82-12.86,21.75-20.12,37.06-16.11,13.71,3.59,24.14,16.54,24.11,31.85l-.05,31.7c-.02,14.85-9.87,27.55-23.33,31.41-14.66,4.2-29.79-1.81-37.61-15.36ZM724.82,705.47c-11.4,2.74-17.39,13.91-14.61,24.06,2.76,10.12,13.1,16.53,23.13,14.17,10.51-2.48,17.45-13.05,14.92-23.48-2.42-9.98-12.46-17.38-23.44-14.75Z"/>
  <path d="M626.59,756.91l-21.85.28c-3.31.04-6.88-2.51-6.88-6.23l-.03-77.7c0-3.56,2.41-6.78,6.07-6.78l19.23-.02c11.21,0,21.98,3.47,30.42,10.96,14.01,12.43,18.98,31.63,12.68,49.6-5.61,16-20.83,29.66-39.64,29.9ZM655.68,708.2c-1.38-16.04-13.81-28.39-29.38-28.59l-15.46-.21-.02,64.76,11.32.14c19.73.24,35.31-15.61,33.55-36.09Z"/>
  <path d="M897.46,751.5c0,3.3-3.88,5.44-6.19,5.35-3.29-.14-5.58-2.21-6.61-5.93-14.9,10.56-36.4,7.11-46.62-8.64-8.74-13.46-5.83-31.24,5.75-41.61,11.57-10.37,29.57-11.42,41.87-1.32,7.17,5.9,11.73,14.4,11.75,23.73l.05,28.43ZM880.9,736.83c7.79-10.57,3.52-25.32-8.02-30.26-7.24-3.1-14.95-1.12-20.44,3.69-5.16,4.52-7.9,11.91-6.2,19.02s7.96,12.62,14.36,14.23c7.34,1.84,15.51-.18,20.3-6.68Z"/>
  <path d="M818.1,750.55c0,3.73-2.97,6.13-5.56,6.54-2.71.43-7.15-1.66-7.16-5.17l-.1-46.77-8.68.03c-3.61.01-6.33-2.36-6.92-5.59-.51-2.81,1.62-7.03,5.05-7.1l10.56-.22.08-26.79c0-3.09,3.76-5.52,6.22-5.44,3.48.1,6.52,2.68,6.52,6.41v25.91s8.52-.09,8.52-.09c3.62-.04,6.62,2.18,7.12,5.78.43,3.06-2.43,7.02-6.15,7.06l-9.48.09v45.38Z"/>
  <path d="M917.89,749.46c0,4.88-2.69,7.64-6.52,7.65-3.69,0-6.46-2.88-6.46-7.14l.03-83.43c0-3.68,3.47-6.4,6.45-6.4s6.47,2.74,6.47,6.4l.03,82.93Z"/>
  <path d="M689.34,751.46c0,3.68-3.95,5.74-6.29,5.68-3.04-.08-6.51-2.51-6.51-6.15l-.05-51.89c0-3.76,2.38-6.36,5.66-6.91,2.54-.42,7.13,1.52,7.14,5.15l.06,54.11Z"/>
  <path d="M781.74,750.51c0,4.26-3.42,6.65-6.59,6.64-2.96,0-6.23-2.52-6.23-6.24v-52.7c0-3.68,3.32-5.91,6.28-5.98,2.99-.06,6.51,2.25,6.52,5.91l.03,52.37Z"/>
  <path d="M681.03,666.85c3.27-1.03,6.87.83,7.84,3.47,1.31,3.59-.21,7.31-3.23,8.53-3.53,1.42-7.34-.28-8.6-3.47s.13-7.31,3.99-8.53Z"/>
  <path d="M773.27,666.9c3.01-1.24,6.88.67,7.91,3.22,1.43,3.51-.02,7.32-3.33,8.7-3.25,1.35-7.1.14-8.52-3.55-1.12-2.91.12-6.8,3.93-8.37Z"/>
</svg>